<?xml version="1.0" encoding="iso-8859-1"?>
<!-- Generator: Adobe Illustrator 19.0.0, SVG Export Plug-In . SVG Version: 6.00 Build 0)  -->
<svg version="1.1" id="Layer_1" xmlns="http://www.w3.org/2000/svg" xmlns:xlink="http://www.w3.org/1999/xlink" x="0px" y="0px"
	 viewBox="0 0 463 463" style="enable-background:new 0 0 463 463;" xml:space="preserve">
<g>
	<g>
		<path d="M418.128,4.506c-3.126-2.94-7.384-4.487-11.694-4.208c-11.933,0.737-24.676,2.737-35.919,4.501
			C360.025,6.445,350.118,8,343.945,8c-5.227,0-15.472-1.056-28.443-2.392C292.522,3.241,261.049,0,231.501,0
			C201.953,0,170.48,3.241,147.5,5.608C134.529,6.944,124.284,8,119.057,8c-6.172,0-16.08-1.555-26.569-3.201
			C81.245,3.035,68.501,1.035,56.566,0.298c-4.297-0.277-8.566,1.267-11.693,4.208c-3.097,2.911-4.873,7.02-4.873,11.273V87.22
			c0,4.253,1.776,8.362,4.873,11.273c3.127,2.94,7.389,4.492,11.694,4.208c11.933-0.737,24.676-2.737,35.919-4.501
			c10.49-1.645,20.397-3.2,26.57-3.2c5.227,0,15.472,1.056,28.443,2.392c16.942,1.745,38.502,3.961,60.501,5.008v41.1
			c0,10.336,6.71,19.128,16,22.266v44.722c-8.003,3.484-16,8.29-16,17.895c0,11.508,11.477,16.129,20.699,19.842
			c3.35,1.349,10.255,4.13,11.276,5.928c-1.021,1.798-7.926,4.579-11.276,5.928c-9.222,3.713-20.699,8.334-20.699,19.842
			c0,11.503,11.479,16.119,20.702,19.828c3.345,1.346,10.238,4.118,11.272,5.914c-1.026,1.799-7.927,4.577-11.275,5.926
			c-9.222,3.713-20.699,8.334-20.699,19.842c0,11.508,11.477,16.129,20.698,19.843c3.352,1.35,10.26,4.132,11.278,5.93
			c-1.016,1.799-7.926,4.582-11.278,5.933c-9.221,3.711-20.698,8.333-20.698,19.842c0,11.518,11.475,16.146,20.694,19.866
			c3.361,1.356,10.296,4.154,11.286,5.955c-0.989,1.801-7.924,4.599-11.285,5.955c-2.836,1.145-4.694,3.896-4.694,6.955
			l-0.001,33.788c0,4.142,3.358,7.5,7.5,7.5c4.142,0,7.5-3.358,7.5-7.5l0.001-28.777c8.004-3.492,15.999-8.307,15.999-17.92
			c0-11.517-11.474-16.146-20.693-19.865c-3.398-1.371-10.45-4.216-11.294-5.937c0.976-1.798,7.925-4.597,11.29-5.952
			c9.221-3.714,20.698-8.336,20.698-19.846c0-11.509-11.477-16.13-20.699-19.844c-3.35-1.35-10.256-4.13-11.277-5.929
			c1.021-1.798,7.927-4.579,11.277-5.928c9.222-3.713,20.699-8.334,20.699-19.842c0-11.503-11.479-16.119-20.702-19.828
			c-3.345-1.346-10.238-4.118-11.272-5.914c1.026-1.799,7.927-4.577,11.275-5.926c9.222-3.713,20.699-8.334,20.699-19.842
			s-11.477-16.129-20.699-19.842c-3.35-1.349-10.254-4.129-11.276-5.927c1.025-1.797,7.918-4.573,11.277-5.926
			c2.838-1.144,4.698-3.896,4.698-6.957v-49.734c9.29-3.138,16-11.93,16-22.266v-41.101c22-1.046,43.559-3.263,60.501-5.008
			C328.473,96.056,338.718,95,343.945,95c6.172,0,16.08,1.555,26.569,3.201c11.243,1.764,23.986,3.764,35.92,4.501
			c4.299,0.274,8.566-1.268,11.693-4.208c3.097-2.911,4.873-7.021,4.873-11.273V15.779C423.001,11.526,421.225,7.417,418.128,4.506z
			 M240.001,143.5c0,4.687-3.813,8.5-8.5,8.5s-8.5-3.813-8.5-8.5v-40.593c2.844,0.055,5.682,0.093,8.5,0.093s5.656-0.038,8.5-0.093
			V143.5z M408.001,87.221c0,0.103-0.018,0.224-0.148,0.346c-0.129,0.121-0.295,0.181-0.494,0.165
			c-11.23-0.694-23.603-2.636-34.519-4.35C361.275,81.567,351.287,80,343.945,80c-5.998,0-16.581,1.09-29.98,2.471
			C291.309,84.804,260.279,88,231.501,88s-59.808-3.196-82.464-5.529C135.638,81.09,125.053,80,119.057,80
			c-7.342,0-17.33,1.567-28.895,3.382c-10.917,1.714-23.289,3.655-34.518,4.35c-0.2,0.01-0.365-0.044-0.495-0.165
			c-0.13-0.123-0.148-0.244-0.148-0.346V15.779c0-0.103,0.018-0.224,0.148-0.346c0.129-0.121,0.299-0.176,0.494-0.165
			c11.23,0.694,23.603,2.636,34.519,4.35C101.727,21.433,111.715,23,119.057,23c5.998,0,16.581-1.09,29.98-2.471
			C171.693,18.196,202.723,15,231.501,15s59.808,3.196,82.464,5.529C327.364,21.91,337.948,23,343.945,23
			c7.342,0,17.33-1.567,28.895-3.382c10.917-1.714,23.289-3.655,34.518-4.35c0.198-0.016,0.365,0.043,0.495,0.165
			s0.148,0.243,0.148,0.346V87.221z"/>
	</g>
</g>
<g>
</g>
<g>
</g>
<g>
</g>
<g>
</g>
<g>
</g>
<g>
</g>
<g>
</g>
<g>
</g>
<g>
</g>
<g>
</g>
<g>
</g>
<g>
</g>
<g>
</g>
<g>
</g>
<g>
</g>
</svg>